<?xml version="1.0" standalone="no"?><svg xmlns="http://www.w3.org/2000/svg" viewBox="0 0 1440 320"><path fill="rgba(198, 164, 152, 1)" fill-opacity="1" d="M0,160L26.7,176C53.3,192,107,224,160,213.3C213.3,203,267,149,320,160C373.3,171,427,245,480,266.7C533.3,288,587,256,640,213.3C693.3,171,747,117,800,96C853.3,75,907,85,960,106.7C1013.3,128,1067,160,1120,197.3C1173.3,235,1227,277,1280,293.3C1333.3,309,1387,299,1413,293.3L1440,288L1440,0L1413.3,0C1386.7,0,1333,0,1280,0C1226.7,0,1173,0,1120,0C1066.7,0,1013,0,960,0C906.7,0,853,0,800,0C746.7,0,693,0,640,0C586.7,0,533,0,480,0C426.7,0,373,0,320,0C266.7,0,213,0,160,0C106.7,0,53,0,27,0L0,0Z"></path></svg>