<svg width="100%" height="200%" id="svg" viewBox="0 0 1440 500" xmlns="http://www.w3.org/2000/svg" class="transition duration-300 ease-in-out delay-150"><path d="M 0,500 C 0,500 0,250 0,250 C 51.14395040841683,191.31178460969096 102.28790081683366,132.62356921938195 145,168 C 187.71209918316634,203.37643078061805 221.99234714108218,332.8175077321632 263,342 C 304.0076528589178,351.1824922678368 351.7427106188374,240.10639985196542 408,216 C 464.2572893811626,191.89360014803458 529.0368103835682,254.7568928599751 582,268 C 634.9631896164318,281.2431071400249 676.11004784689,244.866028708134 721,245 C 765.88995215311,245.133971291866 814.5229982288719,281.7789923074889 862,285 C 909.4770017711281,288.2210076925111 955.7979592376219,258.01800206191024 999,249 C 1042.2020407623781,239.9819979380898 1082.2851648206404,252.14899944487036 1138,244 C 1193.7148351793596,235.85100055512964 1265.061381479817,207.38600015860848 1318,205 C 1370.938618520183,202.61399984139152 1405.4693092600914,226.30699992069577 1440,250 C 1440,250 1440,500 1440,500 Z" stroke="none" stroke-width="0" fill="#38b2ac" fill-opacity="1" class="transition-all duration-300 ease-in-out delay-150 path-0"></path></svg>