<?xml version="1.0" standalone="no"?><svg xmlns="http://www.w3.org/2000/svg" viewBox="0 0 1440 320"><path fill="rgba(39, 124, 120, 1)" fill-opacity="1" d="M0,224L26.7,208C53.3,192,107,160,160,122.7C213.3,85,267,43,320,53.3C373.3,64,427,128,480,128C533.3,128,587,64,640,80C693.3,96,747,192,800,224C853.3,256,907,224,960,202.7C1013.3,181,1067,171,1120,181.3C1173.3,192,1227,224,1280,213.3C1333.3,203,1387,149,1413,122.7L1440,96L1440,0L1413.3,0C1386.7,0,1333,0,1280,0C1226.7,0,1173,0,1120,0C1066.7,0,1013,0,960,0C906.7,0,853,0,800,0C746.7,0,693,0,640,0C586.7,0,533,0,480,0C426.7,0,373,0,320,0C266.7,0,213,0,160,0C106.7,0,53,0,27,0L0,0Z"></path></svg>