<?xml version="1.0" standalone="no"?><svg xmlns="http://www.w3.org/2000/svg" viewBox="0 0 1440 320"><path fill="rgb(202,117,88)" fill-opacity="1" d="M0,224L26.7,208C53.3,192,107,160,160,122.7C213.3,85,267,43,320,53.3C373.3,64,427,128,480,128C533.3,128,587,64,640,80C693.3,96,747,192,800,224C853.3,256,907,224,960,202.7C1013.3,181,1067,171,1120,181.3C1173.3,192,1227,224,1280,213.3C1333.3,203,1387,149,1413,122.7L1440,96L1440,320L1413.3,320C1386.7,320,1333,320,1280,320C1226.7,320,1173,320,1120,320C1066.7,320,1013,320,960,320C906.7,320,853,320,800,320C746.7,320,693,320,640,320C586.7,320,533,320,480,320C426.7,320,373,320,320,320C266.7,320,213,320,160,320C106.7,320,53,320,27,320L0,320Z"></path></svg>